{
  "accessors": [
    {
      "bufferView": 2,
      "componentType": 5126,
      "count": 5944,
      "max": [
        1.268779993057251,
        1.277109980583191,
        1.0534600019454956
      ],
      "min": [
        -0.7360529899597168,
        -1.0786499977111816,
        -1.4411499500274658
      ],
      "type": "VEC3"
    },
    {
      "bufferView": 2,
      "byteOffset": 71328,
      "componentType": 5126,
      "count": 5944,
      "max": [
        0.9999961256980896,
        0.9999473094940186,
        0.9999998211860657
      ],
      "min": [
        -1.0,
        -1.0,
        -1.0
      ],
      "type": "VEC3"
    },
    {
      "bufferView": 1,
      "componentType": 5126,
      "count": 5944,
      "max": [
        0.9910759925842285,
        0.9918990135192871
      ],
      "min": [
        0.008059999905526638,
        0.008743000216782093
      ],
      "type": "VEC2"
    },
    {
      "bufferView": 0,
      "componentType": 5125,
      "count": 27579,
      "type": "SCALAR"
    },
    {
      "bufferView": 2,
      "byteOffset": 142656,
      "componentType": 5126,
      "count": 3852,
      "max": [
        1.2656400203704834,
        1.2735999822616577,
        1.0490800142288208
      ],
      "min": [
        -0.7365289926528931,
        -1.0777699947357178,
        -1.4409899711608887
      ],
      "type": "VEC3"
    },
    {
      "bufferView": 2,
      "byteOffset": 188880,
      "componentType": 5126,
      "count": 3852,
      "max": [
        0.9999492764472961,
        0.998526394367218,
        1.0
      ],
      "min": [
        -0.9999749064445496,
        -0.9999999403953552,
        -0.9999999403953552
      ],
      "type": "VEC3"
    },
    {
      "bufferView": 1,
      "byteOffset": 47552,
      "componentType": 5126,
      "count": 3852,
      "max": [
        0.9880229830741882,
        0.9919329881668091
      ],
      "min": [
        0.00813400000333786,
        0.012512999586760998
      ],
      "type": "VEC2"
    },
    {
      "bufferView": 0,
      "byteOffset": 110316,
      "componentType": 5125,
      "count": 16629,
      "type": "SCALAR"
    }
  ],
  "asset": {
    "extras": {
      "author": "Manu.Vision (https://sketchfab.com/manu.vision)",
      "license": "CC-BY-NC-SA-4.0 (http://creativecommons.org/licenses/by-nc-sa/4.0/)",
      "source": "https://sketchfab.com/3d-models/day-69-1-scan-a-day-hiphop-legends-329181481e9544b29a204c8705b2ddf7",
      "title": "Day 69 - 1 Scan A Day - HipHop Legends"
    },
    "generator": "Sketchfab-12.62.1",
    "version": "2.0"
  },
  "bufferViews": [
    {
      "buffer": 0,
      "byteLength": 176832,
      "name": "floatBufferViews",
      "target": 34963
    },
    {
      "buffer": 0,
      "byteLength": 78368,
      "byteOffset": 176832,
      "byteStride": 8,
      "name": "floatBufferViews",
      "target": 34962
    },
    {
      "buffer": 0,
      "byteLength": 235104,
      "byteOffset": 255200,
      "byteStride": 12,
      "name": "floatBufferViews",
      "target": 34962
    }
  ],
  "buffers": [
    {
      "byteLength": 490304,
      "uri": "scene.bin"
    }
  ],
  "extensionsUsed": [
    "KHR_materials_unlit"
  ],
  "images": [
    {
      "uri": "textures/cropped_textured_mesh_0_baseColor.jpeg"
    },
    {
      "uri": "textures/cropped_textured_mesh_1_baseColor.jpeg"
    }
  ],
  "materials": [
    {
      "extensions": {
        "KHR_materials_unlit": {}
      },
      "name": "cropped_textured_mesh_0",
      "pbrMetallicRoughness": {
        "baseColorTexture": {
          "index": 0
        },
        "metallicFactor": 0.0
      }
    },
    {
      "extensions": {
        "KHR_materials_unlit": {}
      },
      "name": "cropped_textured_mesh_1",
      "pbrMetallicRoughness": {
        "baseColorTexture": {
          "index": 1
        },
        "metallicFactor": 0.0
      }
    }
  ],
  "meshes": [
    {
      "name": "Object_0",
      "primitives": [
        {
          "attributes": {
            "NORMAL": 1,
            "POSITION": 0,
            "TEXCOORD_0": 2
          },
          "indices": 3,
          "material": 0,
          "mode": 4
        }
      ]
    },
    {
      "name": "Object_1",
      "primitives": [
        {
          "attributes": {
            "NORMAL": 5,
            "POSITION": 4,
            "TEXCOORD_0": 6
          },
          "indices": 7,
          "material": 1,
          "mode": 4
        }
      ]
    }
  ],
  "nodes": [
    {
      "children": [
        1
      ],
      "matrix": [
        1.0,
        0.0,
        0.0,
        0.0,
        0.0,
        2.220446049250313e-16,
        -1.0,
        0.0,
        0.0,
        1.0,
        2.220446049250313e-16,
        0.0,
        0.0,
        0.0,
        0.0,
        1.0
      ],
      "name": "Sketchfab_model"
    },
    {
      "children": [
        2,
        3
      ],
      "name": "cropped_textured_mesh.obj.cleaner.materialmerger.gles"
    },
    {
      "mesh": 0,
      "name": "Object_2"
    },
    {
      "mesh": 1,
      "name": "Object_3"
    }
  ],
  "samplers": [
    {
      "magFilter": 9729,
      "minFilter": 9987,
      "wrapS": 10497,
      "wrapT": 10497
    }
  ],
  "scene": 0,
  "scenes": [
    {
      "name": "Sketchfab_Scene",
      "nodes": [
        0
      ]
    }
  ],
  "textures": [
    {
      "sampler": 0,
      "source": 0
    },
    {
      "sampler": 0,
      "source": 1
    }
  ]
}
